<svg width="14" height="14" fill="none" xmlns="http://www.w3.org/2000/svg"><path d="M12.055 9.492c-.461-.14-.875-.469-1.235-.984a2.986 2.986 0 0 1-.539-1.742c0-.594.172-1.133.508-1.618.188-.273.484-.578.89-.921a3.972 3.972 0 0 0-.812-.782 2.852 2.852 0 0 0-1.664-.507c-.383 0-.836.093-1.351.265-.516.18-.891.266-1.118.266-.18 0-.539-.078-1.078-.235C5.11 3.078 4.656 3 4.273 3c-.898 0-1.632.375-2.218 1.125-.586.758-.883 1.727-.883 2.922 0 1.281.39 2.586 1.148 3.93C3.094 12.32 3.867 13 4.672 13c.258 0 .601-.086 1.031-.266.422-.171.797-.257 1.11-.257.32 0 .718.078 1.18.25.468.164.827.25 1.093.25.664 0 1.336-.508 2.008-1.532.453-.68.765-1.336.96-1.953ZM9.117.328c0-.055-.008-.101-.008-.156C9.102.125 9.086.07 9.07 0c-.906.21-1.562.594-1.953 1.156-.39.563-.594 1.235-.61 2.008.368-.031.634-.078.813-.133.282-.094.563-.281.844-.562.328-.328.57-.688.727-1.078.148-.383.226-.743.226-1.063Z" fill="#fff"/></svg>