<svg width="13" height="14" fill="none" xmlns="http://www.w3.org/2000/svg"><path d="M4.852 2.773a.304.304 0 0 1-.297-.304c0-.165.133-.305.297-.305a.305.305 0 0 1 0 .61Zm3.296 0a.305.305 0 0 1 0-.61c.165 0 .297.141.297.306a.304.304 0 0 1-.297.304ZM1.805 4.211A.802.802 0 0 0 1 5.008v3.359c0 .445.36.805.805.805.445 0 .797-.36.797-.805v-3.36a.8.8 0 0 0-.797-.796Zm8.28.148h-7.17v5.203c0 .477.382.86.858.86h.579l.007 1.773c0 .445.36.805.797.805.446 0 .805-.36.805-.805v-1.773h1.078v1.773a.804.804 0 1 0 1.61 0v-1.773h.585a.855.855 0 0 0 .852-.86V4.36ZM8.274 1.195 8.828.172A.114.114 0 0 0 8.79.015c-.055-.023-.125-.007-.156.047L8.07 1.094A3.87 3.87 0 0 0 6.5.765a3.87 3.87 0 0 0-1.57.329L4.367.062c-.031-.054-.101-.07-.156-.047a.114.114 0 0 0-.04.157l.556 1.023c-1.102.563-1.844 1.64-1.844 2.883h7.226c0-1.242-.742-2.32-1.836-2.883ZM12 5.008a.797.797 0 0 0-.805-.797.795.795 0 0 0-.797.797v3.359a.802.802 0 1 0 1.602 0v-3.36Z" fill="#fff"/></svg>