<svg width="68" height="64" fill="none" xmlns="http://www.w3.org/2000/svg"><g filter="url('#filter0_d_1_4675')"><path fill-rule="evenodd" clip-rule="evenodd" d="M26.1 18.05a.675.675 0 0 1 .203-.474.69.69 0 0 1 .483-.197h14.466c.18 0 .354.07.482.197.128.125.2.296.201.475v3.69l5.021 1.336c.337.087.532.457.434.818l-3.02 11.153-.001 3.342c0 .18-.072.353-.201.48a.69.69 0 0 1-.485.199H24.352a.69.69 0 0 1-.485-.199.675.675 0 0 1-.201-.48v-5.832l-3-8.152c-.128-.35.034-.734.36-.851l5.074-1.827V18.05Zm10.414 2.248 4.483 1.194v-3.187h-13.96v3.085l8.128-2.927c.328-.117.7.073.83.424l.519 1.412Zm7.657 3.153a.69.69 0 0 0-.485-.199h-6.085l-.696-1.89 9.515 2.531-2.05 7.568.002-7.53a.675.675 0 0 0-.2-.48Zm-22.538.87 2.033 5.525v-5.915c0-.139.043-.273.12-.385l-2.153.776ZM35.2 19.437l1.404 3.816h-12l10.596-3.816Zm5.597 9.518a.308.308 0 0 1-.116.023h-5.786v-1.506h5.786c.08 0 .158.032.215.088a.3.3 0 0 1 .09.213v.903a.299.299 0 0 1-.189.279Zm.099 5.658a.306.306 0 0 1-.215.088h-5.786v-1.506h5.786c.08 0 .158.032.215.088a.3.3 0 0 1 .09.213v.904a.3.3 0 0 1-.09.213Zm.913-2.862a.306.306 0 0 1-.215.088h-6.699v-1.506h6.7c.08 0 .157.032.214.088a.3.3 0 0 1 .09.213v.904a.3.3 0 0 1-.09.213Zm-8.592-.582c0-.23-.02-.458-.057-.684h-3.44v1.357h1.97c-.163.828-.898 1.428-1.97 1.428-1.196 0-2.164-1.001-2.164-2.184 0-1.183.97-2.184 2.163-2.184a1.996 1.996 0 0 1 1.402.542l1.043-1.032a3.53 3.53 0 0 0-2.445-.94 3.69 3.69 0 0 0-1.412.263c-.448.179-.856.444-1.2.78a3.581 3.581 0 0 0 0 5.143 3.687 3.687 0 0 0 2.612 1.043c2.11 0 3.498-1.467 3.498-3.532Z" fill="#0DD0BA"/></g><defs><filter id="filter0_d_1_4675" x="-4.896" y="-5.586" width="77.828" height="77.828" filterUnits="userSpaceOnUse" color-interpolation-filters="sRGB"><feFlood flood-opacity="0" result="BackgroundImageFix"/><feColorMatrix in="SourceAlpha" values="0 0 0 0 0 0 0 0 0 0 0 0 0 0 0 0 0 0 127 0" result="hardAlpha"/><feOffset dy="3.828"/><feGaussianBlur stdDeviation="10.207"/><feComposite in2="hardAlpha" operator="out"/><feColorMatrix values="0 0 0 0 0.164706 0 0 0 0 0.52549 0 0 0 0 0.898039 0 0 0 0.08 0"/><feBlend in2="BackgroundImageFix" result="effect1_dropShadow_1_4675"/><feBlend in="SourceGraphic" in2="effect1_dropShadow_1_4675" result="shape"/></filter></defs></svg>