<svg width="63" height="58" fill="none" xmlns="http://www.w3.org/2000/svg"><g filter="url('#filter0_d_1_4673')"><path fill-rule="evenodd" clip-rule="evenodd" d="M40.197 17.94a2.734 2.734 0 0 1 1.926 1.933c.455 1.706.455 5.265.455 5.265s0 3.559-.455 5.264a2.734 2.734 0 0 1-1.926 1.934c-1.7.457-8.513.457-8.513.457s-6.813 0-8.512-.457a2.734 2.734 0 0 1-1.926-1.933c-.455-1.706-.455-5.265-.455-5.265s0-3.559.455-5.265a2.734 2.734 0 0 1 1.926-1.933c1.7-.457 8.512-.457 8.512-.457s6.814 0 8.513.457Zm-5.049 7.198-5.694 3.231v-6.462l5.694 3.231Z" fill="#0DD0BA"/></g><defs><filter id="filter0_d_1_4673" x="-7.276" y="-10.586" width="77.828" height="77.828" filterUnits="userSpaceOnUse" color-interpolation-filters="sRGB"><feFlood flood-opacity="0" result="BackgroundImageFix"/><feColorMatrix in="SourceAlpha" values="0 0 0 0 0 0 0 0 0 0 0 0 0 0 0 0 0 0 127 0" result="hardAlpha"/><feOffset dy="3.828"/><feGaussianBlur stdDeviation="10.207"/><feComposite in2="hardAlpha" operator="out"/><feColorMatrix values="0 0 0 0 0.164706 0 0 0 0 0.52549 0 0 0 0 0.898039 0 0 0 0.08 0"/><feBlend in2="BackgroundImageFix" result="effect1_dropShadow_1_4673"/><feBlend in="SourceGraphic" in2="effect1_dropShadow_1_4673" result="shape"/></filter></defs></svg>