<svg width="60" height="56" fill="none" xmlns="http://www.w3.org/2000/svg"><g filter="url('#filter0_d_1_4669')"><path d="M38.624 18.34a7.293 7.293 0 0 1-2.095.564 3.628 3.628 0 0 0 1.6-2.005 7.163 7.163 0 0 1-2.31.878 3.63 3.63 0 0 0-2.657-1.149 3.636 3.636 0 0 0-3.638 3.638c0 .282.034.563.09.834a10.34 10.34 0 0 1-7.5-3.807 3.61 3.61 0 0 0-.496 1.836c0 1.261.642 2.376 1.622 3.03a3.665 3.665 0 0 1-1.644-.462v.045a3.638 3.638 0 0 0 2.917 3.57c-.304.078-.631.124-.958.124-.236 0-.461-.023-.687-.057a3.644 3.644 0 0 0 3.402 2.523 7.285 7.285 0 0 1-4.517 1.554c-.304 0-.585-.011-.878-.045a10.28 10.28 0 0 0 5.586 1.633c6.69 0 10.35-5.54 10.35-10.35 0-.157 0-.315-.011-.473a7.82 7.82 0 0 0 1.824-1.88Z" fill="#0DD0BA"/></g><defs><filter id="filter0_d_1_4669" x="-9.034" y="-11.586" width="77.828" height="77.828" filterUnits="userSpaceOnUse" color-interpolation-filters="sRGB"><feFlood flood-opacity="0" result="BackgroundImageFix"/><feColorMatrix in="SourceAlpha" values="0 0 0 0 0 0 0 0 0 0 0 0 0 0 0 0 0 0 127 0" result="hardAlpha"/><feOffset dy="3.828"/><feGaussianBlur stdDeviation="10.207"/><feComposite in2="hardAlpha" operator="out"/><feColorMatrix values="0 0 0 0 0.164706 0 0 0 0 0.52549 0 0 0 0 0.898039 0 0 0 0.08 0"/><feBlend in2="BackgroundImageFix" result="effect1_dropShadow_1_4669"/><feBlend in="SourceGraphic" in2="effect1_dropShadow_1_4669" result="shape"/></filter></defs></svg>