<svg width="59" height="60" fill="none" xmlns="http://www.w3.org/2000/svg"><g filter="url('#filter0_d_1_4671')"><path d="M25.923 17.27c-.95.044-1.6.196-2.167.419a4.37 4.37 0 0 0-1.58 1.033c-.495.496-.8.994-1.027 1.582-.22.57-.369 1.219-.41 2.17-.043.95-.052 1.256-.047 3.681.004 2.425.015 2.73.061 3.682.045.95.196 1.599.42 2.167.229.587.535 1.084 1.032 1.58.497.495.995.799 1.585 1.026.568.22 1.217.37 2.168.411.95.042 1.257.052 3.681.047 2.425-.005 2.73-.015 3.683-.06.952-.046 1.597-.198 2.165-.42a4.377 4.377 0 0 0 1.58-1.033c.495-.497.8-.996 1.027-1.584.22-.568.37-1.218.41-2.168.042-.953.052-1.257.047-3.682-.004-2.425-.015-2.73-.06-3.682s-.197-1.599-.42-2.167a4.385 4.385 0 0 0-1.032-1.58 4.36 4.36 0 0 0-1.584-1.026c-.569-.22-1.218-.37-2.169-.411-.95-.041-1.256-.052-3.682-.047-2.425.005-2.729.015-3.681.061Zm.104 16.145c-.87-.038-1.344-.183-1.659-.304a2.78 2.78 0 0 1-1.028-.666 2.751 2.751 0 0 1-.67-1.026c-.122-.315-.27-.787-.31-1.658-.045-.941-.054-1.224-.06-3.608-.005-2.384.005-2.667.046-3.608.037-.87.183-1.344.304-1.659.16-.417.354-.714.666-1.028.311-.314.609-.507 1.026-.67.314-.123.787-.269 1.657-.31.942-.045 1.224-.054 3.608-.06 2.384-.004 2.667.005 3.61.046.87.038 1.343.182 1.657.304.418.16.715.354 1.029.666.314.312.507.608.67 1.026.123.314.27.786.31 1.657.045.942.055 1.224.06 3.608.004 2.384-.005 2.667-.046 3.608-.038.871-.182 1.344-.303 1.66-.161.416-.355.714-.667 1.028a2.76 2.76 0 0 1-1.026.67c-.314.122-.787.269-1.657.31-.941.044-1.224.054-3.609.059-2.385.005-2.666-.005-3.608-.045m7.28-12.05a1.073 1.073 0 1 0 2.146-.004 1.073 1.073 0 0 0-2.145.004Zm-8.271 4.782a4.586 4.586 0 1 0 9.17-.018 4.586 4.586 0 0 0-9.17.018Zm1.608-.003a2.977 2.977 0 1 1 5.954-.012 2.977 2.977 0 0 1-5.953.012Z" fill="#0DD0BA"/></g><defs><filter id="filter0_d_1_4671" x="-8.655" y="-9.586" width="77.828" height="77.828" filterUnits="userSpaceOnUse" color-interpolation-filters="sRGB"><feFlood flood-opacity="0" result="BackgroundImageFix"/><feColorMatrix in="SourceAlpha" values="0 0 0 0 0 0 0 0 0 0 0 0 0 0 0 0 0 0 127 0" result="hardAlpha"/><feOffset dy="3.828"/><feGaussianBlur stdDeviation="10.207"/><feComposite in2="hardAlpha" operator="out"/><feColorMatrix values="0 0 0 0 0.164706 0 0 0 0 0.52549 0 0 0 0 0.898039 0 0 0 0.08 0"/><feBlend in2="BackgroundImageFix" result="effect1_dropShadow_1_4671"/><feBlend in="SourceGraphic" in2="effect1_dropShadow_1_4671" result="shape"/></filter></defs></svg>