<svg width="18" height="14" fill="none" xmlns="http://www.w3.org/2000/svg"><path d="M4.836 3.773a.304.304 0 0 1-.297-.304c0-.164.133-.305.297-.305a.305.305 0 0 1 0 .61Zm3.297 0a.305.305 0 0 1 0-.609c.164 0 .297.14.297.305a.304.304 0 0 1-.297.304ZM1.789 5.211a.802.802 0 0 0-.805.797v3.36c0 .444.36.804.805.804.445 0 .797-.36.797-.805v-3.36a.8.8 0 0 0-.797-.796Zm8.281.148H2.898v5.204c0 .476.383.859.86.859h.578l.008 1.773a.802.802 0 1 0 1.601 0v-1.773h1.078v1.773a.804.804 0 1 0 1.61 0v-1.773h.586a.855.855 0 0 0 .851-.86V5.36ZM8.258 2.195l.555-1.023a.114.114 0 0 0-.04-.156c-.054-.024-.125-.008-.156.046l-.562 1.032a3.87 3.87 0 0 0-1.57-.328 3.87 3.87 0 0 0-1.57.328l-.563-1.031c-.032-.055-.102-.07-.157-.047a.114.114 0 0 0-.039.156l.555 1.023c-1.102.563-1.844 1.64-1.844 2.883h7.227c0-1.242-.742-2.32-1.836-2.883Zm3.726 3.813a.797.797 0 0 0-.804-.797.795.795 0 0 0-.797.797v3.36c0 .444.36.804.797.804.445 0 .804-.36.804-.805v-3.36Z" fill="#707070"/></svg>