<svg width="17" height="14" fill="none" xmlns="http://www.w3.org/2000/svg"><path d="M10.883 9.492c-.461-.14-.875-.469-1.235-.984a2.987 2.987 0 0 1-.539-1.742c0-.594.172-1.133.508-1.618.188-.273.485-.578.89-.921a3.97 3.97 0 0 0-.812-.782 2.852 2.852 0 0 0-1.664-.507c-.383 0-.836.093-1.351.265-.516.18-.89.266-1.117.266-.18 0-.54-.078-1.079-.235-.546-.156-1-.234-1.382-.234-.899 0-1.633.375-2.22 1.125C.298 4.883 0 5.852 0 7.047c0 1.281.39 2.586 1.148 3.93C1.922 12.32 2.695 13 3.5 13c.258 0 .602-.086 1.031-.266.422-.171.797-.257 1.11-.257.32 0 .718.078 1.18.25.468.164.827.25 1.093.25.664 0 1.336-.508 2.008-1.532.453-.68.765-1.336.96-1.953ZM7.945.328c0-.055-.008-.101-.008-.156C7.93.125 7.915.07 7.899 0c-.906.21-1.562.594-1.953 1.156-.39.563-.593 1.235-.61 2.008.368-.031.634-.078.813-.133.282-.094.563-.281.844-.562.328-.328.57-.688.727-1.078.148-.383.226-.743.226-1.063Z" fill="#707070"/></svg>