<svg width="13" height="14" fill="none" xmlns="http://www.w3.org/2000/svg"><path d="M5.02 12.2a.826.826 0 0 1-.832.813.826.826 0 0 1-.834-.813c0-.447.375-.813.833-.813.459 0 .834.366.834.813Zm2.168-1.625a.339.339 0 0 1-.334.325H1.521a.339.339 0 0 1-.333-.325v-7.15c0-.173.156-.325.333-.325h5.333c.177 0 .333.152.333.325v7.15Zm-2-8.612a.163.163 0 0 1-.167.162H3.354a.163.163 0 1 1 0-.325h1.667c.094 0 .167.071.167.162Zm3-.163c0-.71-.605-1.3-1.334-1.3H1.521C.79.5.188 1.09.188 1.8v10.4c0 .71.604 1.3 1.333 1.3h5.333c.73 0 1.333-.59 1.333-1.3V1.8Z" fill="#707070"/></svg>