<svg width="20" height="21" fill="none" xmlns="http://www.w3.org/2000/svg"><path d="M17.944 6.658c.013.177.013.355.013.533 0 5.418-4.125 11.662-11.663 11.662-2.322 0-4.48-.673-6.294-1.84.33.038.647.05.99.05 1.916 0 3.68-.646 5.089-1.75a4.106 4.106 0 0 1-3.833-2.843c.254.038.508.063.774.063.368 0 .736-.05 1.079-.14A4.1 4.1 0 0 1 .812 8.372V8.32c.546.305 1.18.495 1.853.52A4.096 4.096 0 0 1 .838 5.427c0-.762.203-1.46.558-2.069a11.651 11.651 0 0 0 8.452 4.29 4.627 4.627 0 0 1-.102-.94 4.097 4.097 0 0 1 4.1-4.099c1.18 0 2.245.495 2.994 1.295a8.07 8.07 0 0 0 2.602-.99 4.088 4.088 0 0 1-1.802 2.259A8.217 8.217 0 0 0 20 4.538a8.811 8.811 0 0 1-2.056 2.12Z" fill="#fff"/></svg>