<svg width="60" height="56" viewBox="0 0 60 56" fill="none" xmlns="http://www.w3.org/2000/svg">
<g filter="url(#filter0_d_1_4669)">
<path d="M38.6242 18.3404C37.971 18.6219 37.2615 18.8247 36.5294 18.9035C37.284 18.453 37.8584 17.7435 38.1287 16.8988C37.4304 17.3155 36.642 17.6196 35.8199 17.7773C35.1554 17.0678 34.2094 16.6285 33.162 16.6285C31.1461 16.6285 29.5244 18.2616 29.5244 20.2662C29.5244 20.5478 29.5581 20.8293 29.6144 21.0996C26.5962 20.942 23.9045 19.5004 22.1138 17.293C21.7985 17.8336 21.6183 18.453 21.6183 19.1287C21.6183 20.3901 22.2602 21.5051 23.2401 22.1583C22.6432 22.1357 22.0801 21.9668 21.5958 21.6965C21.5958 21.7078 21.5958 21.7303 21.5958 21.7416C21.5958 23.5097 22.8459 24.9738 24.5127 25.3117C24.2086 25.3905 23.882 25.4356 23.5554 25.4356C23.3189 25.4356 23.0936 25.413 22.8684 25.3793C23.3302 26.8208 24.6704 27.8682 26.2696 27.902C25.0195 28.8818 23.454 29.4562 21.7534 29.4562C21.4494 29.4562 21.1678 29.4449 20.875 29.4111C22.4855 30.4472 24.4001 31.0441 26.461 31.0441C33.1508 31.0441 36.811 25.5031 36.811 20.6942C36.811 20.5365 36.811 20.3788 36.7997 20.2212C37.5092 19.7031 38.1287 19.0612 38.6242 18.3404Z" fill="#0DD0BA"/>
</g>
<defs>
<filter id="filter0_d_1_4669" x="-9.0344" y="-11.5862" width="77.8276" height="77.8276" filterUnits="userSpaceOnUse" color-interpolation-filters="sRGB">
<feFlood flood-opacity="0" result="BackgroundImageFix"/>
<feColorMatrix in="SourceAlpha" type="matrix" values="0 0 0 0 0 0 0 0 0 0 0 0 0 0 0 0 0 0 127 0" result="hardAlpha"/>
<feOffset dy="3.82759"/>
<feGaussianBlur stdDeviation="10.2069"/>
<feComposite in2="hardAlpha" operator="out"/>
<feColorMatrix type="matrix" values="0 0 0 0 0.164706 0 0 0 0 0.52549 0 0 0 0 0.898039 0 0 0 0.08 0"/>
<feBlend mode="normal" in2="BackgroundImageFix" result="effect1_dropShadow_1_4669"/>
<feBlend mode="normal" in="SourceGraphic" in2="effect1_dropShadow_1_4669" result="shape"/>
</filter>
</defs>
</svg>
