<svg width="59" height="60" viewBox="0 0 59 60" fill="none" xmlns="http://www.w3.org/2000/svg">
<g filter="url(#filter0_d_1_4671)">
<path d="M25.9227 17.2694C24.9724 17.3142 24.3234 17.4659 23.7561 17.6888C23.169 17.9176 22.6714 18.2246 22.1762 18.7216C21.6811 19.2185 21.3762 19.7165 21.149 20.3045C20.9291 20.8731 20.7801 21.5225 20.7381 22.4733C20.6962 23.4241 20.6869 23.7297 20.6915 26.1551C20.6962 28.5804 20.7069 28.8844 20.753 29.8372C20.7983 30.7873 20.9494 31.436 21.1724 32.0035C21.4015 32.5906 21.7082 33.0881 22.2053 33.5834C22.7024 34.0787 23.2001 34.3829 23.7895 34.6105C24.3576 34.83 25.0072 34.9797 25.9578 35.0213C26.9085 35.0629 27.2145 35.0726 29.6391 35.0679C32.0637 35.0633 32.369 35.0525 33.3216 35.0074C34.2741 34.9622 34.9195 34.81 35.4872 34.5881C36.0743 34.3584 36.5721 34.0523 37.0671 33.555C37.5621 33.0577 37.8668 32.5594 38.0938 31.971C38.3139 31.403 38.4634 30.7533 38.5046 29.8034C38.5463 28.8501 38.5561 28.5457 38.5514 26.1208C38.5468 23.6958 38.5359 23.3918 38.4907 22.4394C38.4455 21.487 38.2942 20.8402 38.0715 20.2724C37.842 19.6852 37.5356 19.1881 37.0387 18.6924C36.5418 18.1968 36.043 17.8922 35.4548 17.6657C34.8865 17.4458 34.2372 17.296 33.2865 17.2549C32.3359 17.2138 32.0299 17.2033 29.6044 17.2079C27.1789 17.2126 26.8752 17.2229 25.9227 17.2694ZM26.027 33.4146C25.1562 33.3767 24.6834 33.232 24.3683 33.1109C23.951 32.9502 23.6538 32.7558 23.3398 32.4449C23.0258 32.1339 22.8328 31.8356 22.6699 31.4192C22.5476 31.1041 22.4002 30.6319 22.3595 29.7611C22.3152 28.8199 22.3059 28.5373 22.3007 26.1529C22.2955 23.7685 22.3047 23.4863 22.3459 22.5448C22.3831 21.6747 22.5286 21.2014 22.6496 20.8865C22.8103 20.4687 23.004 20.172 23.3157 19.8581C23.6274 19.5443 23.9248 19.351 24.3415 19.1881C24.6562 19.0652 25.1285 18.9191 25.9989 18.8777C26.9408 18.833 27.223 18.8241 29.6071 18.8189C31.9912 18.8137 32.2741 18.8227 33.2163 18.8641C34.0864 18.902 34.5599 19.0461 34.8745 19.1678C35.2919 19.3285 35.589 19.5216 35.9028 19.8338C36.2167 20.1461 36.4101 20.4424 36.573 20.86C36.6961 21.1739 36.8422 21.646 36.8833 22.5169C36.9281 23.4588 36.9383 23.7412 36.9426 26.1251C36.9469 28.5089 36.9385 28.7921 36.8972 29.7332C36.8592 30.604 36.7148 31.077 36.5936 31.3924C36.4328 31.8095 36.239 32.1069 35.9271 32.4206C35.6152 32.7342 35.3182 32.9275 34.9013 33.0904C34.5869 33.2131 34.1141 33.3596 33.2444 33.401C32.3025 33.4453 32.0203 33.4546 29.6353 33.4598C27.2504 33.465 26.969 33.4553 26.0271 33.4146M33.3078 21.3646C33.3082 21.5766 33.3714 21.7837 33.4894 21.9598C33.6075 22.1358 33.7751 22.2729 33.9711 22.3537C34.1671 22.4345 34.3827 22.4553 34.5905 22.4136C34.7983 22.3719 34.9891 22.2694 35.1388 22.1193C35.2884 21.9691 35.3901 21.7779 35.4311 21.5699C35.472 21.362 35.4504 21.1465 35.3689 20.9508C35.2874 20.7551 35.1497 20.588 34.9732 20.4706C34.7967 20.3531 34.5894 20.2907 34.3774 20.2911C34.0932 20.2917 33.8209 20.4051 33.6203 20.6064C33.4197 20.8077 33.3073 21.0804 33.3078 21.3646ZM25.0358 26.1468C25.0408 28.6797 27.0978 30.7283 29.6301 30.7235C32.1625 30.7187 34.2125 28.6618 34.2077 26.129C34.2029 23.5961 32.1453 21.547 29.6126 21.552C27.0799 21.557 25.031 23.6144 25.0358 26.1468ZM26.6445 26.1436C26.6433 25.5548 26.8168 24.9789 27.1429 24.4887C27.4691 23.9984 27.9333 23.6159 28.4768 23.3895C29.0204 23.1631 29.6189 23.103 30.1966 23.2167C30.7743 23.3305 31.3053 23.6129 31.7225 24.0285C32.1397 24.444 32.4243 24.9739 32.5403 25.5512C32.6563 26.1284 32.5985 26.7271 32.3743 27.2716C32.15 27.816 31.7694 28.2817 31.2805 28.6098C30.7915 28.9379 30.2163 29.1137 29.6275 29.1148C29.2365 29.1156 28.8492 29.0394 28.4877 28.8906C28.1262 28.7417 27.7975 28.523 27.5205 28.2471C27.2435 27.9712 27.0236 27.6434 26.8732 27.2825C26.7229 26.9216 26.6452 26.5346 26.6445 26.1436Z" fill="#0DD0BA"/>
</g>
<defs>
<filter id="filter0_d_1_4671" x="-8.65525" y="-9.58621" width="77.8276" height="77.8276" filterUnits="userSpaceOnUse" color-interpolation-filters="sRGB">
<feFlood flood-opacity="0" result="BackgroundImageFix"/>
<feColorMatrix in="SourceAlpha" type="matrix" values="0 0 0 0 0 0 0 0 0 0 0 0 0 0 0 0 0 0 127 0" result="hardAlpha"/>
<feOffset dy="3.82759"/>
<feGaussianBlur stdDeviation="10.2069"/>
<feComposite in2="hardAlpha" operator="out"/>
<feColorMatrix type="matrix" values="0 0 0 0 0.164706 0 0 0 0 0.52549 0 0 0 0 0.898039 0 0 0 0.08 0"/>
<feBlend mode="normal" in2="BackgroundImageFix" result="effect1_dropShadow_1_4671"/>
<feBlend mode="normal" in="SourceGraphic" in2="effect1_dropShadow_1_4671" result="shape"/>
</filter>
</defs>
</svg>
