<svg width="68" height="64" viewBox="0 0 68 64" fill="none" xmlns="http://www.w3.org/2000/svg">
<g filter="url(#filter0_d_1_4675)">
<path fill-rule="evenodd" clip-rule="evenodd" d="M26.0998 18.0507C26.1017 17.8719 26.1749 17.7012 26.3033 17.5755C26.4318 17.4498 26.6051 17.3793 26.7858 17.3793H41.2519C41.4324 17.3791 41.6056 17.4497 41.7336 17.5755C41.8617 17.7013 41.9342 17.8721 41.9353 18.0507V21.7412L46.9565 23.0773C47.2926 23.164 47.4879 23.5342 47.3903 23.8949L44.3696 35.0482L44.3689 38.3902C44.3689 38.5702 44.2966 38.7429 44.168 38.8701C44.0393 38.9974 43.8648 39.0689 43.6829 39.0689H24.3519C24.1699 39.0689 23.9954 38.9974 23.8668 38.8701C23.7381 38.7429 23.6658 38.5702 23.6658 38.3902V32.5577L20.6666 24.4061C20.5378 24.0552 20.6998 23.672 21.0265 23.5545L26.0998 21.7276V18.0507ZM36.5138 20.2985L40.9975 21.4917V18.305H27.0376V21.3899L35.1654 18.4631C35.4925 18.3457 35.8651 18.5362 35.9944 18.8871L36.5138 20.2985ZM44.1712 23.451C44.0425 23.3238 43.868 23.2522 43.6861 23.2522H37.6006L36.9048 21.3614L46.42 23.8934L44.3704 31.4611L44.3721 23.931C44.3721 23.751 44.2998 23.5783 44.1712 23.451ZM21.6332 24.3215L23.6658 29.846V23.931C23.6658 23.7925 23.7086 23.6584 23.7869 23.5459L21.6332 24.3215ZM35.1988 19.4365L36.6029 23.2522H24.6024L35.1988 19.4365ZM40.7962 28.954C40.7593 28.9691 40.7196 28.977 40.6796 28.977H34.8943V27.4707H40.6796C40.7603 27.4707 40.8378 27.5025 40.8949 27.559C40.952 27.6155 40.9841 27.6921 40.9841 27.772V28.6752C40.9841 28.7148 40.9763 28.754 40.961 28.7906C40.9458 28.8272 40.9234 28.8605 40.8951 28.8885C40.8668 28.9166 40.8332 28.9388 40.7962 28.954ZM40.8947 34.612C40.8376 34.6684 40.7602 34.7001 40.6796 34.7001H34.8943V33.1939H40.6796C40.7603 33.1939 40.8378 33.2256 40.8949 33.2821C40.952 33.3386 40.9841 33.4152 40.9841 33.4951V34.3994C40.9839 34.4792 40.9518 34.5557 40.8947 34.612ZM41.8084 31.7498C41.7513 31.8063 41.6738 31.838 41.5931 31.838H34.8943V30.3318H41.5931C41.6738 30.3319 41.7511 30.3637 41.8082 30.4202C41.8653 30.4766 41.8974 30.5532 41.8975 30.633V31.5368C41.8975 31.6167 41.8655 31.6933 41.8084 31.7498ZM33.2162 31.1682C33.2153 30.9389 33.1961 30.71 33.1587 30.4837H29.7185V31.8411H31.6885C31.526 32.6686 30.7914 33.2685 29.7185 33.2685C28.5228 33.2685 27.5549 32.2677 27.5549 31.0846C27.5549 29.9016 28.5249 28.9007 29.7185 28.9007C30.2395 28.8923 30.743 29.087 31.1201 29.4427L32.1629 28.411C31.5013 27.7969 30.6251 27.4601 29.718 27.4712C29.2345 27.4655 28.7547 27.5548 28.3063 27.7338C27.858 27.9129 27.45 28.1782 27.106 28.5145C26.7621 28.8507 26.489 29.2511 26.3026 29.6925C26.1162 30.1339 26.0203 30.6076 26.0203 31.0859C26.0203 31.5643 26.1162 32.0379 26.3026 32.4793C26.489 32.9207 26.7621 33.3212 27.106 33.6574C27.45 33.9936 27.858 34.259 28.3063 34.438C28.7547 34.6171 29.2345 34.7064 29.718 34.7006C31.8289 34.7006 33.2162 33.233 33.2162 31.1682Z" fill="#0DD0BA"/>
</g>
<defs>
<filter id="filter0_d_1_4675" x="-4.89646" y="-5.58621" width="77.8276" height="77.8276" filterUnits="userSpaceOnUse" color-interpolation-filters="sRGB">
<feFlood flood-opacity="0" result="BackgroundImageFix"/>
<feColorMatrix in="SourceAlpha" type="matrix" values="0 0 0 0 0 0 0 0 0 0 0 0 0 0 0 0 0 0 127 0" result="hardAlpha"/>
<feOffset dy="3.82759"/>
<feGaussianBlur stdDeviation="10.2069"/>
<feComposite in2="hardAlpha" operator="out"/>
<feColorMatrix type="matrix" values="0 0 0 0 0.164706 0 0 0 0 0.52549 0 0 0 0 0.898039 0 0 0 0.08 0"/>
<feBlend mode="normal" in2="BackgroundImageFix" result="effect1_dropShadow_1_4675"/>
<feBlend mode="normal" in="SourceGraphic" in2="effect1_dropShadow_1_4675" result="shape"/>
</filter>
</defs>
</svg>
