<svg width="63" height="58" viewBox="0 0 63 58" fill="none" xmlns="http://www.w3.org/2000/svg">
<g filter="url(#filter0_d_1_4673)">
<path fill-rule="evenodd" clip-rule="evenodd" d="M40.1968 17.9399C41.1343 18.1914 41.8724 18.9325 42.123 19.8735C42.5783 21.5792 42.5783 25.138 42.5783 25.138C42.5783 25.138 42.5783 28.6967 42.123 30.4025C41.8724 31.3435 41.1343 32.0845 40.1968 32.3361C38.4977 32.7931 31.6844 32.7931 31.6844 32.7931C31.6844 32.7931 24.8712 32.7931 23.1721 32.3361C22.2347 32.0845 21.4963 31.3435 21.2458 30.4025C20.7905 28.6967 20.7905 25.138 20.7905 25.138C20.7905 25.138 20.7905 21.5792 21.2458 19.8735C21.4963 18.9325 22.2347 18.1914 23.1721 17.9399C24.8712 17.4828 31.6844 17.4828 31.6844 17.4828C31.6844 17.4828 38.4977 17.4828 40.1968 17.9399ZM35.1482 25.1381L29.4537 28.369V21.9069L35.1482 25.1381Z" fill="#0DD0BA"/>
</g>
<defs>
<filter id="filter0_d_1_4673" x="-7.27585" y="-10.5862" width="77.8276" height="77.8276" filterUnits="userSpaceOnUse" color-interpolation-filters="sRGB">
<feFlood flood-opacity="0" result="BackgroundImageFix"/>
<feColorMatrix in="SourceAlpha" type="matrix" values="0 0 0 0 0 0 0 0 0 0 0 0 0 0 0 0 0 0 127 0" result="hardAlpha"/>
<feOffset dy="3.82759"/>
<feGaussianBlur stdDeviation="10.2069"/>
<feComposite in2="hardAlpha" operator="out"/>
<feColorMatrix type="matrix" values="0 0 0 0 0.164706 0 0 0 0 0.52549 0 0 0 0 0.898039 0 0 0 0.08 0"/>
<feBlend mode="normal" in2="BackgroundImageFix" result="effect1_dropShadow_1_4673"/>
<feBlend mode="normal" in="SourceGraphic" in2="effect1_dropShadow_1_4673" result="shape"/>
</filter>
</defs>
</svg>
