<svg width="60" height="60" viewBox="0 0 60 60" fill="none" xmlns="http://www.w3.org/2000/svg">
<g filter="url(#filter0_d_1_4678)">
<path d="M20.8257 17.2069V20.4546C28.888 20.4546 35.4401 27.0067 35.4401 35.069H38.6878C38.6878 25.2042 30.6904 17.2069 20.8257 17.2069ZM20.8257 22.8903V26.1379C25.754 26.1379 29.7567 30.1407 29.7567 35.069H33.0044C33.0044 28.3463 27.5483 22.8903 20.8257 22.8903ZM23.2614 30.1975C22.6154 30.1975 21.9959 30.4541 21.5391 30.9109C21.0823 31.3677 20.8257 31.9872 20.8257 32.6332C20.8257 33.2792 21.0823 33.8988 21.5391 34.3556C21.9959 34.8124 22.6154 35.069 23.2614 35.069C23.9074 35.069 24.527 34.8124 24.9837 34.3556C25.4405 33.8988 25.6972 33.2792 25.6972 32.6332C25.6972 31.9872 25.4405 31.3677 24.9837 30.9109C24.527 30.4541 23.9074 30.1975 23.2614 30.1975Z" fill="#0DD0BA"/>
</g>
<defs>
<filter id="filter0_d_1_4678" x="-8.51731" y="-9.58621" width="77.8276" height="77.8276" filterUnits="userSpaceOnUse" color-interpolation-filters="sRGB">
<feFlood flood-opacity="0" result="BackgroundImageFix"/>
<feColorMatrix in="SourceAlpha" type="matrix" values="0 0 0 0 0 0 0 0 0 0 0 0 0 0 0 0 0 0 127 0" result="hardAlpha"/>
<feOffset dy="3.82759"/>
<feGaussianBlur stdDeviation="10.2069"/>
<feComposite in2="hardAlpha" operator="out"/>
<feColorMatrix type="matrix" values="0 0 0 0 0.164706 0 0 0 0 0.52549 0 0 0 0 0.898039 0 0 0 0.08 0"/>
<feBlend mode="normal" in2="BackgroundImageFix" result="effect1_dropShadow_1_4678"/>
<feBlend mode="normal" in="SourceGraphic" in2="effect1_dropShadow_1_4678" result="shape"/>
</filter>
</defs>
</svg>
