<svg width="17" height="14" viewBox="0 0 17 14" fill="none" xmlns="http://www.w3.org/2000/svg">
<path d="M11.1094 2.30469C11.0313 2.125 10.8516 2 10.6484 2H0.648438C0.445313 2 0.265625 2.125 0.1875 2.30469C0.109375 2.49219 0.148438 2.71094 0.296875 2.85156L4.14844 6.70312V10.5C4.14844 10.6328 4.20313 10.7578 4.29688 10.8516L6.29688 12.8516C6.39063 12.9531 6.51563 13 6.64844 13C6.71094 13 6.78125 12.9844 6.84375 12.9609C7.02344 12.8828 7.14844 12.7031 7.14844 12.5V6.70312L11 2.85156C11.1484 2.71094 11.1875 2.49219 11.1094 2.30469Z" fill="#707070"/>
</svg>
