<svg width="18" height="14" viewBox="0 0 18 14" fill="none" xmlns="http://www.w3.org/2000/svg">
<path d="M4.83594 3.77344C4.67188 3.77344 4.53906 3.63281 4.53906 3.46875C4.53906 3.30469 4.67188 3.16406 4.83594 3.16406C5.00781 3.16406 5.14062 3.30469 5.14062 3.46875C5.14062 3.63281 5.00781 3.77344 4.83594 3.77344ZM8.13281 3.77344C7.96094 3.77344 7.82813 3.63281 7.82813 3.46875C7.82813 3.30469 7.96094 3.16406 8.13281 3.16406C8.29688 3.16406 8.42969 3.30469 8.42969 3.46875C8.42969 3.63281 8.29688 3.77344 8.13281 3.77344ZM1.78906 5.21094C1.34375 5.21094 0.984375 5.57031 0.984375 6.00781V9.36719C0.984375 9.8125 1.34375 10.1719 1.78906 10.1719C2.23438 10.1719 2.58594 9.8125 2.58594 9.36719V6.00781C2.58594 5.57031 2.22656 5.21094 1.78906 5.21094ZM10.0703 5.35937H2.89844V10.5625C2.89844 11.0391 3.28125 11.4219 3.75781 11.4219H4.33594L4.34375 13.1953C4.34375 13.6406 4.70312 14 5.14062 14C5.58594 14 5.94531 13.6406 5.94531 13.1953V11.4219H7.02344V13.1953C7.02344 13.6406 7.38281 14 7.82813 14C8.27344 14 8.63281 13.6406 8.63281 13.1953V11.4219H9.21875C9.6875 11.4219 10.0703 11.0391 10.0703 10.5625V5.35937ZM8.25781 2.19531L8.8125 1.17187C8.84375 1.11719 8.82813 1.04687 8.77344 1.01562C8.71875 0.992187 8.64844 1.00781 8.61719 1.0625L8.05469 2.09375C7.57813 1.88281 7.04688 1.76562 6.48438 1.76562C5.92188 1.76562 5.39063 1.88281 4.91406 2.09375L4.35156 1.0625C4.32031 1.00781 4.25 0.992187 4.19531 1.01562C4.14063 1.04687 4.125 1.11719 4.15625 1.17187L4.71094 2.19531C3.60938 2.75781 2.86719 3.83594 2.86719 5.07812H10.0938C10.0938 3.83594 9.35156 2.75781 8.25781 2.19531ZM11.9844 6.00781C11.9844 5.5625 11.625 5.21094 11.1797 5.21094C10.7422 5.21094 10.3828 5.5625 10.3828 6.00781V9.36719C10.3828 9.8125 10.7422 10.1719 11.1797 10.1719C11.625 10.1719 11.9844 9.8125 11.9844 9.36719V6.00781Z" fill="#707070"/>
</svg>
